<mxfile host="app.diagrams.net" agent="Mozilla/5.0 (Windows NT 10.0; Win64; x64) AppleWebKit/537.36 (KHTML, like Gecko) Chrome/137.0.0.0 Safari/537.36 Edg/137.0.0.0" version="27.1.4">
  <diagram name="Helveticride UML" id="uml-fixed">
    <mxGraphModel dx="735" dy="465" grid="1" gridSize="10" guides="1" tooltips="1" connect="1" arrows="1" fold="1" page="1" pageScale="1" pageWidth="827" pageHeight="1169" math="0" shadow="0">
      <root>
        <mxCell id="0" />
        <mxCell id="1" parent="0" />
        <mxCell id="users" value="" style="shape=swimlane;whiteSpace=wrap;html=1;" parent="1" vertex="1">
          <mxGeometry x="400" y="300" width="180" height="120" as="geometry" />
        </mxCell>
        <mxCell id="usersText" value="Users&lt;br&gt;&lt;br&gt;&lt;div&gt;&lt;u&gt;- UserId: int&lt;/u&gt;&lt;br&gt;- Username: string&lt;br&gt;- PasswordHash: string&lt;br&gt;- CreatedAt: string&lt;/div&gt;" style="text;html=1;strokeColor=none;fillColor=none;align=left;verticalAlign=top;" parent="users" vertex="1">
          <mxGeometry x="5" y="5" width="170" height="110" as="geometry" />
        </mxCell>
        <mxCell id="routes" value="" style="shape=swimlane;whiteSpace=wrap;html=1;" parent="1" vertex="1">
          <mxGeometry x="150" y="150" width="200" height="160" as="geometry" />
        </mxCell>
        <mxCell id="routesText" value="Routes&lt;div&gt;&lt;br&gt;&lt;u&gt;- Id: int&lt;/u&gt;&lt;br&gt;- Start: string&lt;br&gt;- End: string&lt;br&gt;- Waypoints: string&lt;br&gt;- CreatedAt: string&lt;br&gt;- Distance: string&lt;br&gt;- Duration: string&lt;/div&gt;" style="text;html=1;strokeColor=none;fillColor=none;align=left;verticalAlign=top;" parent="routes" vertex="1">
          <mxGeometry x="5" y="5" width="190" height="150" as="geometry" />
        </mxCell>
        <mxCell id="userRoutes" value="" style="shape=swimlane;whiteSpace=wrap;html=1;" parent="1" vertex="1">
          <mxGeometry x="650" y="150" width="200" height="140" as="geometry" />
        </mxCell>
        <mxCell id="userRoutesText" value="UserRoutes&lt;div&gt;&lt;br&gt;&lt;/div&gt;&lt;div&gt;&lt;u&gt;- Id: int&lt;br&gt;&lt;/u&gt;- UserId: int&lt;br&gt;- RouteId: int&lt;br&gt;- IsFavorite: bool&lt;br&gt;- SavedAt: string&lt;/div&gt;" style="text;html=1;strokeColor=none;fillColor=none;align=left;verticalAlign=top;" parent="userRoutes" vertex="1">
          <mxGeometry x="5" y="5" width="190" height="130" as="geometry" />
        </mxCell>
        <mxCell id="feedback" value="" style="shape=swimlane;whiteSpace=wrap;html=1;" parent="1" vertex="1">
          <mxGeometry x="400" y="480" width="200" height="100" as="geometry" />
        </mxCell>
        <mxCell id="feedbackText" value="Feedback&lt;div&gt;&lt;br&gt;&lt;u&gt;- Id: int&lt;/u&gt;&lt;br&gt;- UserId: int&lt;br&gt;- Message: string&lt;br&gt;- CreatedAt: string&lt;/div&gt;" style="text;html=1;strokeColor=none;fillColor=none;align=left;verticalAlign=top;" parent="feedback" vertex="1">
          <mxGeometry x="5" y="5" width="190" height="90" as="geometry" />
        </mxCell>
        <mxCell id="r1" style="endArrow=block;html=1;entryX=1.005;entryY=0.682;entryDx=0;entryDy=0;entryPerimeter=0;" parent="1" source="userRoutes" target="usersText" edge="1">
          <mxGeometry relative="1" as="geometry">
            <Array as="points">
              <mxPoint x="640" y="220" />
              <mxPoint x="650" y="200" />
            </Array>
          </mxGeometry>
        </mxCell>
        <mxCell id="WwpXg4irI16vnyo3yLrZ-1" value="1" style="edgeLabel;html=1;align=center;verticalAlign=middle;resizable=0;points=[];" vertex="1" connectable="0" parent="r1">
          <mxGeometry x="0.5356" y="-4" relative="1" as="geometry">
            <mxPoint as="offset" />
          </mxGeometry>
        </mxCell>
        <mxCell id="r2" style="endArrow=block;html=1;" parent="1" source="userRoutes" target="routes" edge="1">
          <mxGeometry relative="1" as="geometry" />
        </mxCell>
        <mxCell id="WwpXg4irI16vnyo3yLrZ-2" value="n" style="edgeLabel;html=1;align=center;verticalAlign=middle;resizable=0;points=[];" vertex="1" connectable="0" parent="r2">
          <mxGeometry x="-0.914" y="9" relative="1" as="geometry">
            <mxPoint as="offset" />
          </mxGeometry>
        </mxCell>
        <mxCell id="WwpXg4irI16vnyo3yLrZ-7" value="cn" style="edgeLabel;html=1;align=center;verticalAlign=middle;resizable=0;points=[];" vertex="1" connectable="0" parent="r2">
          <mxGeometry x="0.8046" y="-4" relative="1" as="geometry">
            <mxPoint as="offset" />
          </mxGeometry>
        </mxCell>
        <mxCell id="WwpXg4irI16vnyo3yLrZ-8" value="1" style="edgeLabel;html=1;align=center;verticalAlign=middle;resizable=0;points=[];" vertex="1" connectable="0" parent="r2">
          <mxGeometry x="-0.8005" y="-2" relative="1" as="geometry">
            <mxPoint as="offset" />
          </mxGeometry>
        </mxCell>
        <mxCell id="r3" style="endArrow=block;html=1;" parent="1" source="feedback" target="users" edge="1">
          <mxGeometry relative="1" as="geometry" />
        </mxCell>
        <mxCell id="WwpXg4irI16vnyo3yLrZ-5" value="n" style="edgeLabel;html=1;align=center;verticalAlign=middle;resizable=0;points=[];" vertex="1" connectable="0" parent="r3">
          <mxGeometry x="0.5381" relative="1" as="geometry">
            <mxPoint as="offset" />
          </mxGeometry>
        </mxCell>
        <mxCell id="WwpXg4irI16vnyo3yLrZ-6" value="1" style="edgeLabel;html=1;align=center;verticalAlign=middle;resizable=0;points=[];" vertex="1" connectable="0" parent="r3">
          <mxGeometry x="-0.6519" y="-1" relative="1" as="geometry">
            <mxPoint as="offset" />
          </mxGeometry>
        </mxCell>
      </root>
    </mxGraphModel>
  </diagram>
</mxfile>
